<svg enable-background="new 0 0 720 76.3" viewBox="0 0 720 76.3" xmlns="http://www.w3.org/2000/svg"><g fill="#012169"><path d="m262.9 27.1-2.7-7.4h-10.2l-2.6 7.4h-4.6l10-26.9h4.8l10 26.9zm-3.8-11.2-2.5-7.3c-.2-.5-.4-1.3-.8-2.3-.3-1-.5-1.8-.7-2.3-.3 1.5-.8 3.1-1.4 4.9l-2.4 7z"/><path d="m276.8 16.4v10.7h-4.4v-26.7h7.6c3.5 0 6 .6 7.7 1.9s2.5 3.2 2.5 5.9c0 3.3-1.7 5.7-5.2 7.1l7.6 11.8h-5l-6.4-10.7zm0-3.6h3c2 0 3.5-.4 4.4-1.1s1.4-1.9 1.4-3.4-.5-2.6-1.5-3.3-2.5-1-4.5-1h-2.9v8.8z"/><path d="m306.8 27.1h-4.4v-23h-7.9v-3.7h20.1v3.8h-7.9v22.9z"/><path d="m319.8 27.1v-26.7h4.4v26.7z"/><path d="m337.8 27.1h-4.3v-26.7h15.1v3.7h-10.8v8.4h10.1v3.7h-10.1z"/><path d="m354.1 27.1v-26.7h4.4v26.7z"/><path d="m377 3.8c-2.5 0-4.5.9-5.9 2.7s-2.2 4.2-2.2 7.4c0 3.3.7 5.8 2.1 7.4 1.4 1.7 3.4 2.5 6 2.5 1.1 0 2.2-.1 3.3-.3s2.2-.5 3.3-.9v3.8c-2.1.8-4.5 1.2-7.1 1.2-3.9 0-6.9-1.2-9-3.6s-3.1-5.8-3.1-10.2c0-2.8.5-5.2 1.5-7.3s2.5-3.7 4.4-4.8 4.2-1.7 6.8-1.7c2.7 0 5.3.6 7.6 1.7l-1.6 3.6c-.9-.4-1.9-.8-2.9-1.1s-2.1-.4-3.2-.4z"/><path d="m390.1 27.1v-26.7h4.4v26.7z"/><path d="m419.5 27.1-2.7-7.4h-10.2l-2.6 7.4h-4.6l10-26.9h4.8l10 26.9zm-3.8-11.2-2.5-7.3c-.2-.5-.4-1.3-.8-2.3-.3-1-.5-1.8-.7-2.3-.3 1.5-.8 3.1-1.4 4.9l-2.4 7z"/><path d="m429 27.1v-26.7h4.4v23h11.3v3.8h-15.7z"/><path d="m460.9 27.1v-26.7h4.4v26.7z"/><path d="m496.9 27.1h-5.4l-13.1-21.3h-.1l.1 1.2c.2 2.3.3 4.3.3 6.2v13.9h-4v-26.7h5.3l13 21.2h.1c0-.3-.1-1.3-.1-3.1-.1-1.8-.1-3.1-.1-4.1v-14h4z"/><path d="m514.3 27.1h-4.4v-23h-7.9v-3.7h20.1v3.8h-7.9v22.9z"/><path d="m542.4 27.1h-15.1v-26.7h15.1v3.7h-10.8v7.3h10.1v3.6h-10.1v8.4h10.8z"/><path d="m549.7 27.1v-26.7h4.4v23h11.3v3.8h-15.7z"/><path d="m570.1 27.1v-26.7h4.4v23h11.3v3.8h-15.7z"/><path d="m590.5 27.1v-26.7h4.4v26.7z"/><path d="m612.9 12.6h9.8v13.4c-1.6.5-3.2.9-4.6 1.1-1.5.2-3.1.3-4.8.3-4 0-7.2-1.2-9.4-3.6s-3.3-5.8-3.3-10.1 1.2-7.7 3.7-10.1 5.9-3.6 10.3-3.6c2.8 0 5.4.5 7.9 1.6l-1.5 3.7c-2.2-1-4.3-1.5-6.5-1.5-2.9 0-5.1.9-6.8 2.7s-2.5 4.2-2.5 7.4c0 3.3.7 5.8 2.2 7.5s3.6 2.6 6.5 2.6c1.4 0 2.9-.2 4.5-.5v-6.9h-5.5z"/><path d="m645.2 27.1h-15.2v-26.7h15.1v3.7h-10.8v7.3h10.1v3.6h-10.1v8.4h10.8v3.7z"/><path d="m673.9 27.1h-5.4l-13.1-21.3h-.1l.1 1.2c.2 2.3.3 4.3.3 6.2v13.9h-4v-26.7h5.3l13.1 21.2h.1c0-.3-.1-1.3-.1-3.1-.1-1.8-.1-3.1-.1-4.1v-14h4v26.7z"/><path d="m691.8 3.8c-2.5 0-4.5.9-5.9 2.7s-2.2 4.2-2.2 7.4c0 3.3.7 5.8 2.1 7.4 1.4 1.7 3.4 2.5 6 2.5 1.1 0 2.2-.1 3.3-.3s2.2-.5 3.3-.9v3.8c-2.1.8-4.5 1.2-7.1 1.2-3.9 0-6.9-1.2-9-3.6s-3.1-5.8-3.1-10.2c0-2.8.5-5.2 1.5-7.3s2.5-3.7 4.4-4.8 4.2-1.7 6.8-1.7c2.7 0 5.3.6 7.6 1.7l-1.6 3.6c-.9-.4-1.9-.8-2.9-1.1-1.1-.3-2.1-.4-3.2-.4z"/><path d="m720 27.1h-15.1v-26.7h15.1v3.7h-10.8v7.3h10.1v3.6h-10.1v8.4h10.8z"/><path d="m12.4 66.7c-1.4 0-3.1.1-4.7.2s-3.1.2-4.3.2c-.5 0-1.8 0-1.8-1 0-.8.7-1.7 3.7-2.2 2.2-.4 4.5-.7 4.5-6.5v-47.1c0-1.9-4.2-1.7-6.8-1.9-2.3-.2-3-.2-3-1.3 0-1.7 2.7-1.7 3.9-1.7h9.1c2.5 0 4.9-.2 7.4-.3s5.4-.3 8.6-.3c21 0 38.1 10.4 38.1 34.6 0 15-13.8 27.3-31 27.3zm6.1-12.6c0 7 6.3 10.1 12.8 10.1 7.8 0 26.4-6.5 26.4-26.8 0-20.5-18.4-29.7-30.8-29.7-8.2 0-8.4 1.8-8.4 3.2z"/><path d="m75.6 54.4c0-6.1.2-15.4.2-21.4 0-1.4-1.7-1.6-2.9-1.9-2.4-.6-3-.8-3-1.5 0-.9 1.1-.9 2.5-.9s2.8.2 4.3.2 2.9-.2 4.4-.2c1.3 0 1.5.5 1.5 1.9 0 8.9-.2 17.8-.2 26.8 0 4.1 3 6.4 7.9 6.4 11.1 0 11.9-4.7 12-8.8 0-7.1.2-14.3.2-21.5 0-1.2-.5-1.2-5.2-2.4-.8-.2-2.9-.8-2.9-1.6 0-.6 1.1-.8 2.2-.8 1.7 0 3.4.2 5.1.2 2 0 3.9-.2 5.9-.2 1.1-.1 2 .7 2.1 1.8v.3c0 10.1-.4 20.3-.4 30.4 0 2.1 1.7 2.4 2.6 2.4 3.9 0 5.2 0 5.2 1 0 .8-.5 1-2 1.2-7 1.1-11.1 2-12 2s-.8-.7-.8-1.6v-2.3c0-.8-.2-1.2-.7-1.2-1.6 0-5.9 5.9-14 5.9-9.4 0-12-5.7-12-14.2z"/><path d="m125.7 9.7c0-5.3-4.9-3.6-4.9-5.5 0-.7.7-.9 2.1-1.4l6.8-2.6c.5-.2 1.1-.2 1.7-.2.5 0 1.1.3 1.1 1.8v41.2c0 1.1.2 1.6.9 1.6 1 0 16.3-9 16.3-10.9 0-2.6-3.8-2.6-3.8-4.1 0-.5.8-1 1.4-1 2.1 0 5.1.2 7.7.2s5.5-.2 7.5-.2c.9 0 1.9.2 1.9 1.2s-3.5 1.8-4.9 2.4c-2.9 1.3-19.3 10.9-19.3 11.9.1.6.3 1.1.8 1.4l17.4 15.7c4.1 3.7 7.9 3.4 7.9 4.8 0 .5-1 1-2.6 1-2.1 0-4.7-.4-7.7-.4-2.6 0-5 .4-7.4.4-2.1 0-3-.1-3-1s1.2-1.2 2.9-1.4c1-.1 1.9-.7 1.9-1.4 0-.5-.5-1-1.1-1.6l-15.1-14.3c-.2-.3-.6-.5-.9-.6-.4 0-.7.1-.7.5v14.2c-.1 1.5.8 2.8 2.2 3.2 1.6.5 2.9.5 2.9 1.4s-1.3 1-2.3 1c-2.4 0-4.5-.4-6.7-.4-2.4 0-5.5.4-7.2.4-.6 0-2.4-.1-2.4-1s.8-1.1 1.8-1.4c2.8-.8 4.9-.5 4.9-4.7z"/><path d="m172.9 43.5c-.2 1.2-.3 2.3-.2 3.5 0 8.4 2.3 16.8 14.5 16.8 7.7 0 8-4 9.5-4 .4 0 .8.3.9.7v.1c0 .7-4.2 8-14.6 8-11 0-17.4-7.8-17.4-20.4 0-9.4 5.8-21.2 18.3-21.2 8.1-.3 15 6 15.5 14.1 0 1.8-.3 2.3-2 2.3h-24.5zm19.9-8c0-3.4-3.2-6.1-7.4-6.1-7.2 0-11.6 7-11.6 10.1 0 .7.2.9 8.7.9 8.9.1 10.3-1.2 10.3-4.9z"/><path d="m221.3 0h.9v68.6h-.9z"/><path d="m253.9 68.6-7.7-20.2h-.1c.1 1.6.2 3.5.2 5.7v14.5h-2.4v-22.7h4l7.2 18.8h.1l7.3-18.8h4v22.7h-2.6v-14.6c0-1.7.1-3.5.2-5.5h-.1l-8 20.1z"/><path d="m288.1 68.6-2.8-7.2h-9.1l-2.8 7.2h-2.7l9-22.8h2.2l8.9 22.8zm-3.7-9.6-2.6-7c-.3-.9-.7-2-1.1-3.3-.2 1-.6 2.1-1 3.3l-2.7 7z"/><path d="m308 62.6c0 2-.7 3.6-2.2 4.7s-3.4 1.7-5.9 1.7c-2.7 0-4.8-.3-6.2-1v-2.6c.9.4 1.9.7 3 .9s2.2.3 3.3.3c1.8 0 3.1-.3 4-1s1.3-1.6 1.3-2.8c0-.8-.2-1.4-.5-1.9s-.8-1-1.6-1.4c-.7-.4-1.9-.9-3.4-1.4-2.1-.8-3.6-1.7-4.5-2.7s-1.4-2.4-1.4-4.1c0-1.8.7-3.1 2-4.2 1.3-1 3.1-1.6 5.2-1.6 2.3 0 4.3.4 6.2 1.2l-.8 2.3c-1.9-.8-3.7-1.2-5.5-1.2-1.4 0-2.5.3-3.3.9s-1.2 1.4-1.2 2.5c0 .8.1 1.4.4 1.9s.8 1 1.5 1.4 1.7.9 3.2 1.4c2.4.8 4 1.8 4.9 2.7 1.1 1.2 1.5 2.4 1.5 4z"/><path d="m320.6 68.6h-2.6v-20.4h-7.2v-2.3h17v2.3h-7.2z"/><path d="m344.9 68.6h-12.7v-22.7h12.7v2.3h-10v7.3h9.4v2.3h-9.4v8.4h10z"/><path d="m353.7 59.2v9.5h-2.7v-22.8h6.2c2.8 0 4.8.5 6.2 1.6 1.3 1.1 2 2.7 2 4.8 0 3-1.5 5-4.6 6.1l6.2 10.2h-3.1l-5.5-9.5h-4.7zm0-2.3h3.6c1.9 0 3.2-.4 4.1-1.1s1.3-1.9 1.3-3.3c0-1.5-.4-2.6-1.3-3.3s-2.3-1-4.3-1h-3.4z"/><path d="m383 51.4c2 0 3.5.6 4.7 1.8 1.1 1.2 1.7 2.8 1.7 4.8 0 1.9-.4 3.8-1.1 5.5s-1.8 3.1-3 4c-1.3.9-2.7 1.4-4.3 1.4-2 0-3.6-.6-4.7-1.8s-1.7-2.8-1.7-4.8.4-3.8 1.1-5.6c.8-1.7 1.8-3.1 3.1-4 1.2-.9 2.6-1.3 4.2-1.3zm3.7 6.2c0-1.2-.3-2.2-1-2.9-.6-.7-1.5-1.1-2.6-1.1s-2.1.4-3 1.2-1.6 1.8-2.1 3.2-.7 2.9-.7 4.6c0 1.4.3 2.4 1 3.1s1.6 1.1 2.8 1.1c1.1 0 2-.4 2.9-1.1.9-.8 1.5-1.8 2-3.2.4-1.5.7-3.1.7-4.9z"/><path d="m389.1 76.3c-.7 0-1.4-.1-1.9-.3v-2.2c.7.2 1.2.3 1.7.3.8 0 1.4-.3 1.8-1 .4-.6.8-1.6 1-2.8l3.5-16.8h-3l.2-1 3.2-1 .4-1.6c.5-2.1 1.1-3.5 2-4.4.8-.9 2.1-1.3 3.8-1.3.4 0 .9.1 1.5.2s1.1.3 1.4.4l-.7 2c-.8-.3-1.5-.5-2.1-.5-.9 0-1.6.3-2.1.8s-.9 1.4-1.2 2.8l-.4 1.7h3.7l-.4 2h-3.7l-3.6 17.1c-.4 2-1 3.4-1.9 4.3-.7.8-1.8 1.3-3.2 1.3z"/><path d="m426 68.6h-12.7v-22.7h12.7v2.3h-10v7.3h9.4v2.3h-9.4v8.4h10z"/><path d="m449.2 68.6h-3l-12.4-19.1h-.1c.2 2.2.2 4.3.2 6.2v12.9h-2.4v-22.7h3l12.4 19h.1c0-.3-.1-1.2-.1-2.7-.1-1.5-.1-2.6-.1-3.3v-13h2.5v22.7z"/><path d="m464.3 56.7h7.7v11.1c-1.2.4-2.4.7-3.7.9-1.2.2-2.7.3-4.3.3-3.4 0-6.1-1-8-3.1-1.9-2-2.9-4.9-2.9-8.6 0-2.4.5-4.4 1.4-6.2s2.3-3.1 4.1-4.1 3.9-1.4 6.3-1.4 4.7.4 6.8 1.3l-1 2.3c-2.1-.9-4-1.3-5.9-1.3-2.8 0-4.9.8-6.5 2.5-1.6 1.6-2.3 3.9-2.3 6.9 0 3.1.7 5.4 2.2 7s3.7 2.4 6.6 2.4c1.6 0 3.1-.2 4.6-.5v-7h-5.1z"/><path d="m478.3 68.6v-22.7h2.6v22.7z"/><path d="m506.2 68.6h-3l-12.4-19.1h-.1c.2 2.2.2 4.3.2 6.2v12.9h-2.4v-22.7h3l12.4 19h.1c0-.3-.1-1.2-.1-2.7-.1-1.5-.1-2.6-.1-3.3v-13h2.5v22.7z"/><path d="m525.8 68.6h-12.7v-22.7h12.7v2.3h-10v7.3h9.4v2.3h-9.4v8.4h10z"/><path d="m543.9 68.6h-12.7v-22.7h12.7v2.3h-10v7.3h9.4v2.3h-9.4v8.4h10z"/><path d="m552 59.2v9.5h-2.6v-22.8h6.2c2.8 0 4.8.5 6.2 1.6 1.3 1.1 2 2.7 2 4.8 0 3-1.5 5-4.6 6.1l6.2 10.2h-3.1l-5.5-9.5h-4.8zm0-2.3h3.6c1.9 0 3.2-.4 4.1-1.1s1.3-1.9 1.3-3.3c0-1.5-.4-2.6-1.3-3.3s-2.3-1-4.3-1h-3.4z"/><path d="m569.9 68.6v-22.7h2.6v22.7z"/><path d="m597.9 68.6h-3l-12.4-19.1h-.1c.2 2.2.2 4.3.2 6.2v12.9h-2.4v-22.7h3l12.4 19h.1c0-.3-.1-1.2-.1-2.7-.1-1.5-.1-2.6-.1-3.3v-13h2.5v22.7z"/><path d="m614.2 56.7h7.7v11.1c-1.2.4-2.4.7-3.7.9-1.2.2-2.7.3-4.3.3-3.4 0-6.1-1-8-3.1-1.9-2-2.9-4.9-2.9-8.6 0-2.4.5-4.4 1.4-6.2s2.3-3.1 4.1-4.1 3.9-1.4 6.3-1.4 4.7.4 6.8 1.3l-1 2.3c-2.1-.9-4-1.3-5.9-1.3-2.8 0-4.9.8-6.5 2.5-1.6 1.6-2.3 3.9-2.3 6.9 0 3.1.7 5.4 2.2 7s3.7 2.4 6.6 2.4c1.6 0 3.1-.2 4.6-.5v-7h-5.1z"/></g></svg>