<svg enable-background="new 0 0 48 48" viewBox="0 0 48 48" xmlns="http://www.w3.org/2000/svg"><circle cx="24" cy="24" fill="#1da1f2" r="24"/><path d="m19.6 36.7c10.6 0 16.5-8.8 16.5-16.5 0-.3 0-.5 0-.7 1.1-.8 2.1-1.8 2.9-3-1 .5-2.1.8-3.3.9 1.2-.7 2.1-1.8 2.5-3.2-1.1.7-2.4 1.1-3.7 1.4-1.1-1.1-2.6-1.8-4.2-1.8-3.2 0-5.8 2.6-5.8 5.8 0 .5 0 .9.2 1.3-4.8-.2-9.1-2.5-11.9-6-.5.9-.8 1.8-.8 2.9 0 2 1 3.8 2.6 4.8-.9 0-1.8-.3-2.6-.7v.1c0 2.8 2 5.1 4.6 5.7-.5.1-1 .2-1.5.2-.4 0-.7 0-1.1-.1.7 2.3 2.9 4 5.4 4-2 1.5-4.5 2.5-7.2 2.5-.5 0-.9 0-1.4-.1 2.5 1.5 5.5 2.5 8.8 2.5" fill="#fff"/></svg>