<svg enable-background="new 0 0 48 48" viewBox="0 0 48 48" xmlns="http://www.w3.org/2000/svg"><path d="m48 24c0-13.3-10.7-24-24-24s-24 10.7-24 24c0 12 8.8 21.9 20.2 23.7v-16.8h-6.1v-6.9h6.1v-5.3c0-6 3.6-9.3 9.1-9.3 2.6 0 5.4.5 5.4.5v5.9h-3c-3 0-3.9 1.9-3.9 3.7v4.5h6.7l-1.1 6.9h-5.6v16.8c11.4-1.8 20.2-11.7 20.2-23.7z" fill="#1877f2"/><path d="m33.3 30.9 1.1-6.9h-6.7v-4.5c0-1.9.9-3.7 3.9-3.7h3v-6s-2.7-.5-5.4-.5c-5.5 0-9.1 3.3-9.1 9.3v5.4h-6.1v6.9h6.1v16.8c1.2.2 2.5.3 3.8.3s2.5-.1 3.8-.3v-16.8z" fill="#fff"/></svg>