<svg enable-background="new 0 0 48 48" viewBox="0 0 48 48" xmlns="http://www.w3.org/2000/svg"><circle cx="24" cy="24" fill="#d2006b" r="24"/><g fill="#fff"><path d="m24 12.4c3.8 0 4.2 0 5.7.1 1.4.1 2.1.3 2.6.5.7.3 1.1.6 1.6 1.1s.8 1 1.1 1.6c.2.5.4 1.2.5 2.6.1 1.5.1 1.9.1 5.7s0 4.2-.1 5.7c-.1 1.4-.3 2.1-.5 2.6-.3.7-.6 1.1-1.1 1.6s-1 .8-1.6 1.1c-.5.2-1.3.4-2.6.5-1.5.1-1.9.1-5.7.1s-4.2 0-5.7-.1c-1.4-.1-2.1-.3-2.6-.5-.7-.3-1.1-.6-1.6-1.1s-.8-1-1.1-1.6c-.2-.5-.4-1.2-.5-2.6-.1-1.5-.1-1.9-.1-5.7s0-4.2.1-5.7c.1-1.4.3-2.1.5-2.6.3-.7.6-1.1 1.1-1.6s1-.8 1.6-1.1c.5-.2 1.3-.4 2.6-.5 1.5 0 1.9-.1 5.7-.1m0-2.5c-3.9 0-4.3 0-5.8.1s-2.5.3-3.4.7-1.7.8-2.5 1.6-1.3 1.6-1.6 2.5c-.4.9-.6 1.9-.7 3.4s-.1 2-.1 5.8 0 4.3.1 5.8.3 2.5.7 3.4.8 1.7 1.6 2.5 1.6 1.3 2.5 1.6 1.9.6 3.4.7 2 .1 5.8.1 4.3 0 5.8-.1 2.5-.3 3.4-.7 1.7-.8 2.5-1.6 1.3-1.6 1.6-2.5c.4-.9.6-1.9.7-3.4s.1-2 .1-5.8 0-4.3-.1-5.8-.3-2.5-.7-3.4-.8-1.7-1.6-2.5-1.6-1.3-2.5-1.6-1.9-.6-3.4-.7-1.9-.1-5.8-.1z"/><path d="m24 16.8c-4 0-7.3 3.2-7.3 7.2s3.3 7.2 7.3 7.2 7.3-3.2 7.3-7.2-3.3-7.2-7.3-7.2zm0 11.9c-2.6 0-4.7-2.1-4.7-4.7s2.1-4.7 4.7-4.7 4.7 2.1 4.7 4.7-2.1 4.7-4.7 4.7z"/><ellipse cx="31.6" cy="16.5" rx="1.7" ry="1.7"/></g></svg>