<svg enable-background="new 0 0 48 48" viewBox="0 0 48 48" xmlns="http://www.w3.org/2000/svg"><circle cx="24" cy="24" fill="#fff" r="24"/><g clip-rule="evenodd" fill-rule="evenodd"><path d="m36 9.9h-24c-1.1 0-2.1.9-2.1 2.1v24.1c0 1.1.6 2 1.8 2h24.1c1.2 0 2.3-.9 2.3-2.1v-24c0-1.2-.9-2.1-2.1-2.1" fill="#fff"/><path d="m36 9.9h-24c-1.1 0-2.1.9-2.1 2.1v24.1c0 1.1.6 2 1.8 2h24.1c1.2 0 2.3-.9 2.3-2.1v-24c0-1.2-.9-2.1-2.1-2.1zm-15.3 10.8h3.8v1.9h.1c.6-1.1 2.3-2.1 4.4-2.1 4.1 0 5.2 2.2 5.2 6.2v7.5h-4.1v-6.8c0-1.8-.7-3.3-2.4-3.3-2 0-3 1.4-3 3.6v6.5h-4.1zm-6.7 13.3h4v-13.3h-4zm4.5-18c0 1.4-1.1 2.5-2.5 2.5s-2.5-1.1-2.5-2.5 1.1-2.5 2.5-2.5 2.5 1 2.5 2.5z" fill="#0073b0"/></g></svg>