<svg enable-background="new 0 0 24 24" viewBox="0 0 24 24" xmlns="http://www.w3.org/2000/svg"><path d="m11 6v8h7v-2h-5v-6zm10.9 7.7 2 .2c-.1.9-.4 1.7-.7 2.5l-1.8-.9c.2-.7.4-1.2.5-1.8zm-2.6 7.8-1.4-1.4c-.5.4-1 .7-1.6.9l.7 1.9c.8-.4 1.6-.8 2.3-1.4zm1.2-4.3c-.3.5-.7 1.1-1.1 1.5l1.4 1.4c.6-.6 1.1-1.3 1.5-2.1 0 .1-1.8-.8-1.8-.8zm-20.5-5.2c0 6.6 5.4 12 12 12 1.1 0 2.1-.2 3.1-.4l-.7-1.9c-.7.2-1.5.3-2.4.3-5.5 0-10-4.5-10-10s4.5-10 10-10c2.2 0 4.3.7 6 2l-2.1 2 7 1.4-1.4-7-2.2 2.2c-1.9-1.6-4.5-2.6-7.3-2.6-6.6 0-12 5.4-12 12zm23.8-2.4h-2.1c.2.7.3 1.3.3 2l2 .2c0-.7-.1-1.4-.2-2.2z" fill="#287e7e"/></svg>