<svg enable-background="new 0 0 24 19" viewBox="0 0 24 19" xmlns="http://www.w3.org/2000/svg"><path d="m17 9.6v-2.2c-1.2-.4-1.9-.5-2.3-1.4s.1-1.5.6-2.6l-1.6-1.6c-1.1.5-1.7 1-2.6.6s-1-1.1-1.4-2.3h-2.3c-.5 1.1-.6 1.8-1.5 2.2-.9.4-1.5-.1-2.6-.6l-1.6 1.6c.5 1.1 1 1.7.6 2.6s-1.1 1-2.3 1.5v2.3c1.2.4 1.9.5 2.3 1.4s-.1 1.5-.6 2.6l1.6 1.6c1.1-.5 1.7-1 2.6-.6.9.4 1 1.1 1.4 2.3h2.3c.4-1.2.5-1.9 1.4-2.3.9-.4 1.5.1 2.6.6l1.6-1.6c-.5-1.1-1-1.7-.6-2.6.5-.9 1.2-1 2.4-1.5zm-8.5 1.7c-1.6 0-2.8-1.3-2.8-2.8s1.3-2.8 2.8-2.8 2.8 1.3 2.8 2.8-1.2 2.8-2.8 2.8zm15.5 4.2v-1.1c-.5-.2-.9-.3-1.1-.7s0-.7.3-1.2l-.8-.8c-.5.2-.8.5-1.2.3s-.5-.5-.7-1.1h-1.1c-.2.5-.2.9-.7 1.1s-.7 0-1.2-.3l-.8.8c.2.5.5.8.3 1.2s-.5.5-1.1.7v1.1c.5.2.9.2 1.1.7.2.4 0 .7-.3 1.2l.8.8c.5-.2.8-.5 1.2-.3s.5.5.7 1.1h1.1c.2-.5.2-.9.7-1.1.4-.2.7 0 1.2.3l.8-.8c-.2-.5-.5-.8-.3-1.2s.6-.5 1.1-.7zm-4 .8c-.7 0-1.3-.6-1.3-1.3s.6-1.3 1.3-1.3 1.3.6 1.3 1.3-.6 1.3-1.3 1.3z" fill="#287e7e"/></svg>