<svg enable-background="new 0 0 24 16" viewBox="0 0 24 16" xmlns="http://www.w3.org/2000/svg"><path d="m11.3 15.6c-.2.3-.5.4-.8.4-.2 0-.4-.1-.6-.2-.4-.3-.5-.9-.2-1.3l1.1-1.5c.3-.4.9-.5 1.3-.2s.5.9.2 1.3c.1 0-1 1.5-1 1.5zm-.8-2.8c.3-.4.2-1-.2-1.3s-1-.2-1.3.2l-1.1 1.4c-.3.4-.2 1 .2 1.3s1 .2 1.3-.2zm-1.9-1.4c.3-.4.2-1-.2-1.3s-1-.2-1.3.2l-1.1 1.4c-.3.4-.2 1 .2 1.3s1 .2 1.3-.2zm-1.9-1.4c.3-.4.2-1-.2-1.3s-1-.2-1.3.2l-1.1 1.5c-.3.4-.2 1 .2 1.3s1 .2 1.3-.2c0-.1 1.1-1.5 1.1-1.5zm17.3-8.5s-1.6.3-2.7.5c-2.1.3-4.1-.4-6.4-1.6-.4-.2-.9-.4-1.4-.4s-.9.2-1.3.6c-1.4 1.5-2.2 2.9-3.8 3.9-.8.5.2 1.9 1.9 1.3.9-.3 1.7-.9 2.7-1.6.8-.6 1.2-.5 1.9.1 1.2 1.2 5.4 5.4 5.4 5.4 1.3-.8 2.4-1.3 3.7-1.8zm-10.5 12.7c-.2.5-.6 1-1 1.5.3.2.6.3.9.3.7 0 1.2-.7.5-1.3zm6.5-3.5c-1.1-1.1-4.7-4.7-5.8-5.7-.2-.2-.4-.2-.6 0-.6.5-2.1 1.5-2.9 1.8-1.8.6-3.2-.2-3.5-1.4-.2-.7.1-1.4.7-1.8 1-.6 1.7-1.4 2.5-2.4-.7-.5-1.4-.7-2-.7-1.7 0-3.3 1.4-5.3 1.2-1.4 0-3.1-.3-3.1-.3v6.3c1.5.3 2.5.5 3.9 1.2l.5-.6c.4-.5.9-.8 1.6-.8.9 0 1.6.6 1.9 1.4 1 0 1.7.6 1.9 1.4.8 0 1.6.5 1.9 1.4 1.2 0 2 .9 2 2l1.2 1.2c.4.4 1 .4 1.3 0 .4-.4.4-1 0-1.3l-1.7-1.7c-.2-.2.1-.6.3-.3l2 2c.4.4 1 .4 1.3 0s.4-1 0-1.3l-2.5-2.5c-.2-.2.1-.6.3-.3l2.7 2.7c.4.4 1 .4 1.3 0 .4-.5.4-1.1.1-1.5z" fill="#287e7e"/></svg>